HIERARCHY
ROOT Hips
{
	OFFSET 0.0000 0.0000 0.0000
	CHANNELS 6 Xposition Yposition Zposition Zrotation Xrotation Yrotation
	JOINT Ab
	{
		OFFSET -0.0000 8.1305 -0.0000
		CHANNELS 3 Zrotation Xrotation Yrotation
		JOINT Chest
		{
			OFFSET -0.0000 26.2902 -0.0000
			CHANNELS 3 Zrotation Xrotation Yrotation
			JOINT Neck
			{
				OFFSET -0.0000 26.2902 0.0000
				CHANNELS 3 Zrotation Xrotation Yrotation
				JOINT Head
				{
					OFFSET -0.0000 10.8167 0.0000
					CHANNELS 3 Zrotation Xrotation Yrotation
					End Site
					{
						OFFSET -0.0000 16.7167 0.0000
					}
				}
			}
			JOINT LeftCollar
			{
				OFFSET -0.0000 26.2902 0.0000
				CHANNELS 3 Zrotation Xrotation Yrotation
				JOINT LeftShoulder
				{
					OFFSET 19.6667 -0.0000 0.0000
					CHANNELS 3 Zrotation Xrotation Yrotation
					JOINT LeftElbow
					{
						OFFSET 27.2190 0.0000 0.0000
						CHANNELS 3 Zrotation Xrotation Yrotation
						JOINT LeftWrist
						{
							OFFSET 30.7431 0.0000 0.0000
							CHANNELS 3 Zrotation Xrotation Yrotation
							End Site
							{
								OFFSET 0.0000 -14.7500 0.0000
							}
						}
					}
				}
			}
			JOINT RightCollar
			{
				OFFSET -0.0000 26.2902 0.0000
				CHANNELS 3 Zrotation Xrotation Yrotation
				JOINT RightShoulder
				{
					OFFSET -19.6667 0.0000 0.0000
					CHANNELS 3 Zrotation Xrotation Yrotation
					JOINT RightElbow
					{
						OFFSET -27.2190 0.0000 0.0000
						CHANNELS 3 Zrotation Xrotation Yrotation
						JOINT RightWrist
						{
							OFFSET -30.7431 0.0000 0.0000
							CHANNELS 3 Zrotation Xrotation Yrotation
							End Site
							{
								OFFSET -0.0000 -14.7500 0.0000
							}
						}
					}
				}
			}
		}
	}
	JOINT LeftHip
	{
		OFFSET 11.8000 0.0000 0.0000
		CHANNELS 3 Zrotation Xrotation Yrotation
		JOINT LeftKnee
		{
			OFFSET -0.0000 -39.7832 0.0000
			CHANNELS 3 Zrotation Xrotation Yrotation
			JOINT LeftAnkle
			{
				OFFSET -0.0000 -41.7317 0.0000
				CHANNELS 3 Zrotation Xrotation Yrotation
				End Site
				{
					OFFSET -0.0000 -4.9167 16.7167
				}
			}
		}
	}
	JOINT RightHip
	{
		OFFSET -11.8000 0.0000 0.0000
		CHANNELS 3 Zrotation Xrotation Yrotation
		JOINT RightKnee
		{
			OFFSET -0.0000 -39.7832 0.0000
			CHANNELS 3 Zrotation Xrotation Yrotation
			JOINT RightAnkle
			{
				OFFSET -0.0000 -41.7317 0.0000
				CHANNELS 3 Zrotation Xrotation Yrotation
				End Site
				{
					OFFSET -0.0000 -4.9167 16.7167
				}
			}
		}
	}
}
MOTION
Frames: 11
Frame Time: 0.010000
-5.1122 84.7684 74.6550 357.6749 348.6600 175.9277 358.7936 349.0682 4.4901 2.5429 10.3765 4.3696 351.2269 344.6243 357.0060 2.9853 10.1980 357.9370 336.8083 357.2792 13.4378 315.6266 37.9750 10.5260 357.1445 0.7432 317.8557 88.1168 353.1957 332.1554 27.2415 356.1559 344.3134 23.5127 50.2025 25.4486 327.7940 338.9258 66.5944 259.4670 351.8616 347.3818 351.7584 321.6396 359.4351 356.8859 32.1572 0.1152 2.0979 351.0491 20.5240 359.9888 16.8133 1.9099 5.3195 19.5578 17.8052 2.7925 328.8351 328.8103 
-5.1198 84.6218 73.0381 356.9477 348.7508 176.1786 357.7868 348.8130 4.1893 2.5015 10.7820 4.1652 351.4901 344.1345 357.0220 2.8847 10.2608 357.9559 336.4629 357.1192 14.0661 316.1357 38.9470 8.7128 358.2573 0.2561 317.3691 88.5317 353.2330 333.4597 27.6419 356.0889 344.2058 24.6903 49.5740 23.7465 328.8880 340.2655 65.0154 259.4546 351.6157 348.7425 350.4076 321.5128 357.2660 356.4005 34.3229 0.5408 3.2200 350.7300 22.2240 359.0371 15.9831 1.1804 5.4535 23.1154 17.6114 4.6408 329.4909 330.3383 
-5.1239 84.5290 71.4712 356.2116 348.8071 176.6644 356.7899 348.6201 3.8287 2.3421 11.1831 3.9111 351.8992 343.5562 356.9622 2.6618 10.3414 357.8885 336.1472 356.9728 14.4905 316.7866 39.9803 6.7359 359.4958 359.7210 316.8695 88.3054 353.4336 334.8957 28.1449 355.9772 344.1171 26.1279 48.6057 21.7073 330.0514 341.6463 63.3806 259.7130 351.4390 349.4790 349.0039 321.6079 354.8233 355.5705 36.1091 1.5131 4.0337 350.3000 23.0284 358.0558 14.8858 0.7734 5.8864 26.9884 17.1602 6.3462 330.7754 331.4055 
-5.1040 84.4837 69.9563 355.5949 348.9028 177.2581 356.0469 348.5293 3.4120 1.9989 11.6514 3.5927 352.0650 342.9680 356.9102 2.7839 10.3868 357.8509 335.9280 356.8670 14.7448 317.4092 40.7391 4.7116 0.6218 359.2764 316.4282 88.3692 353.1190 335.6933 28.5969 355.9400 344.4030 28.3797 47.5038 18.7444 331.1509 342.8558 61.8103 260.2030 351.1341 350.3475 347.8393 321.9814 353.1795 354.9443 37.4697 2.2320 4.7610 350.0373 23.0085 357.2037 13.4797 359.8978 6.1200 31.3513 17.3812 7.8631 332.6061 331.9408 
-5.0947 84.4628 68.4429 355.0829 349.1586 177.6455 355.6337 348.6508 3.1549 1.4326 12.0197 3.4298 352.0214 342.6587 356.9296 3.0789 10.2821 357.8850 336.0020 356.8282 15.0120 317.5058 41.7141 2.8129 2.1441 358.5533 316.0066 87.9135 352.9801 336.6382 29.0569 355.9410 344.9929 30.6705 46.4827 15.5465 332.1597 343.9848 60.0167 260.5488 351.1000 351.4539 346.9967 322.8391 352.9977 355.1698 38.2899 2.1374 5.1584 349.7272 23.0065 356.2420 12.0189 359.6462 6.9094 35.7021 16.5709 9.4659 335.0858 332.6730 
-5.0833 84.4665 66.9385 354.8130 349.5545 178.1146 355.4953 349.0674 2.9412 0.8380 12.1195 3.2755 352.0343 342.6956 356.8857 3.2879 9.9916 357.8186 336.1677 356.8276 14.9894 317.4571 42.9295 1.2893 3.8891 357.7390 315.2109 88.2751 352.9524 338.6522 29.4851 355.9804 345.3797 32.7388 45.7414 12.5143 332.9549 344.9617 58.0243 260.6568 351.2268 352.3344 346.4157 324.1493 353.1196 355.6274 38.6349 2.0061 5.7834 349.2519 22.7091 355.4186 10.5762 359.4289 8.1127 39.9743 14.9291 10.2865 338.0024 333.4395 
-5.0577 84.5058 65.3975 354.6870 350.0408 178.4112 355.5706 349.5485 2.8309 0.2176 12.1501 3.2080 352.1715 342.7432 356.9892 3.3389 10.0385 357.9040 336.5089 356.8917 15.0665 317.2275 44.3317 359.6314 5.7308 356.8657 314.6377 88.7634 353.2096 341.0368 29.7952 356.0594 345.8304 34.7999 45.0998 9.4156 333.7790 345.9753 56.0746 260.7875 351.3016 353.0825 346.1853 325.7207 353.8438 356.2858 38.7015 1.5501 6.3373 348.6153 22.1759 354.6726 9.1717 0.1716 10.2669 44.0383 12.8194 8.8854 341.7335 333.6312 
-4.9986 84.5569 63.8853 354.6731 350.5794 178.6377 355.5727 350.2441 2.8119 359.9048 11.8650 3.1987 352.3783 342.9974 357.0707 3.1458 10.1383 357.9459 336.6436 356.8774 15.1327 317.4348 45.8198 357.9302 7.3935 356.1689 313.8367 89.6983 353.5930 343.6284 29.8237 356.1719 346.0849 36.8984 44.6897 6.5877 334.3120 346.7611 53.7433 261.6862 351.4176 354.1166 346.3018 327.4308 354.8815 356.8769 38.5987 0.4880 6.6950 348.0197 21.9211 354.1156 7.6118 0.0736 11.8097 48.3557 12.0712 7.2085 344.2412 332.8274 
-4.9559 84.6515 62.4188 354.6917 350.8496 178.7473 355.7464 350.5947 2.7164 359.4161 11.7341 3.1221 352.8004 343.0888 357.2056 2.8619 10.3848 358.0278 337.3227 356.9838 15.2859 316.8693 47.8499 356.0967 9.8815 354.8144 313.6309 89.5483 353.0853 345.4989 29.8880 356.2578 346.3081 38.8201 43.8771 3.9190 335.1235 347.7606 51.8423 262.0350 351.4864 355.7883 346.4736 328.8525 356.0828 357.4869 38.4463 359.2555 6.8288 347.2785 21.9738 353.4962 5.7520 0.4428 14.0925 52.1096 11.3620 5.8769 345.8472 331.7828 
-4.9025 84.7828 61.0060 354.6354 351.0496 178.7630 355.6842 350.9760 2.6361 359.2341 11.4320 3.0514 352.7898 343.3937 357.3353 3.1003 10.4095 358.1272 337.5422 356.9643 15.5380 317.4444 49.3409 353.8933 11.4324 354.2479 312.8438 90.9963 353.0884 347.3127 29.7630 356.3343 346.4479 40.4040 43.0606 1.6578 336.1198 348.7838 50.0651 262.5026 351.2684 357.1954 346.6033 330.2311 356.9165 357.8601 38.1079 358.5064 6.8906 346.6851 21.9700 352.9493 3.6241 0.5104 16.0593 55.8415 10.4994 4.8218 345.6587 331.1821 
-4.8533 84.9522 59.6203 354.6599 351.1492 178.8807 355.7190 351.2470 2.4891 359.0506 11.2082 2.9049 353.1060 343.4202 357.5063 2.8608 10.7409 358.2579 337.7212 356.9247 15.8839 318.7972 50.9846 350.9975 12.7956 353.6407 311.8671 91.4956 353.2399 348.4222 29.6551 356.3908 346.4723 41.7159 42.1211 359.6230 337.2554 349.7839 48.5917 262.9943 351.3294 359.0315 346.8525 331.5951 357.0446 357.6012 37.5621 358.4650 6.9597 346.2112 22.0587 352.4706 1.3529 0.8047 18.9274 58.9637 8.3894 4.4511 344.5782 330.3413 
